inDegrees=no
num_controls=7
num_derivatives=13
num_iterations=155
num_multipliers=7
num_parameters=0
num_slacks=7
num_states=26
objective=0.447191
objective_accelerations=0.050628
objective_balance=0.007536
objective_effort=0.037182
objective_height=0.346868
objective_ligament=0.004977
solver_duration=2287.397366
status=Solve_Succeeded
success=true
DataType=double
version=3
OpenSimVersion=4.5
endheader
time	/jointset/ground_pelvis/pelvis_tilt/value	/jointset/ground_pelvis/pelvis_tx/value	/jointset/ground_pelvis/pelvis_ty/value	/jointset/hip_l/hip_flexion_l/value	/jointset/hip_l/hip_adduction_l/value	/jointset/hip_l/hip_rotation_l/value	/jointset/back/lumbar_extension/value	/jointset/patellofemoral_l/patellar_flexion_l/value	/jointset/knee_l/knee_flexion_l/value	/jointset/knee_l/knee_adduction_l/value	/jointset/knee_l/knee_rotation_l/value	/jointset/ankle_l/ankle_angle_l/value	/jointset/subtalar_l/subtalar_angle_l/value	/jointset/ground_pelvis/pelvis_tilt/speed	/jointset/ground_pelvis/pelvis_tx/speed	/jointset/ground_pelvis/pelvis_ty/speed	/jointset/hip_l/hip_flexion_l/speed	/jointset/hip_l/hip_adduction_l/speed	/jointset/hip_l/hip_rotation_l/speed	/jointset/back/lumbar_extension/speed	/jointset/patellofemoral_l/patellar_flexion_l/speed	/jointset/knee_l/knee_flexion_l/speed	/jointset/knee_l/knee_adduction_l/speed	/jointset/knee_l/knee_rotation_l/speed	/jointset/ankle_l/ankle_angle_l/speed	/jointset/subtalar_l/subtalar_angle_l/speed	/forceset/tau_hip_flexion_l	/forceset/tau_hip_adduction_l	/forceset/tau_hip_rotation_l	/forceset/tau_knee_flexion_l	/forceset/tau_ankle_angle_l	/forceset/tau_subtalar_angle_l	/forceset/tau_lumbar_extension	lambda_cid13_p0	lambda_cid13_p1	lambda_cid13_p2	lambda_cid13_p3	lambda_cid13_p4	lambda_cid13_p5	lambda_cid14_p0	/jointset/ground_pelvis/pelvis_tilt/accel	/jointset/ground_pelvis/pelvis_tx/accel	/jointset/ground_pelvis/pelvis_ty/accel	/jointset/hip_l/hip_flexion_l/accel	/jointset/hip_l/hip_adduction_l/accel	/jointset/hip_l/hip_rotation_l/accel	/jointset/back/lumbar_extension/accel	/jointset/patellofemoral_l/patellar_flexion_l/accel	/jointset/knee_l/knee_flexion_l/accel	/jointset/knee_l/knee_adduction_l/accel	/jointset/knee_l/knee_rotation_l/accel	/jointset/ankle_l/ankle_angle_l/accel	/jointset/subtalar_l/subtalar_angle_l/accel	gamma_cid13_p0	gamma_cid13_p1	gamma_cid13_p2	gamma_cid13_p3	gamma_cid13_p4	gamma_cid13_p5	gamma_cid14_p0
1	-0.6596525818275715	-0.1310246118935337	0.5846961824598149	1.990378039274382	-0.2927021319333241	0.1501869211868244	-0.4363280640156246	1.235278826777347	1.235278826777362	-0.1745185796235724	0.1745306286348541	0.1021529356616151	-0.0241485825068578	-0.01024413722603978	0.0008979667448899269	-0.003149004897468651	0.01597389945516704	0.00080030612359468	0.003239025344874974	-7.963965940603916e-05	0.008402767603178886	0.008402767603178722	1.585301314070232e-05	-1.993172866483598e-06	0.00330135372893368	0.001477717523892111	-0.4457050853041191	-0.0007701732671624499	-0.01721921424404611	-0.2571873984854596	0.1377664599993473	0.02576269783388202	0.3573713706191145	-2.479923282351872	-10.57625643738364	1.080102185972778	8.686964581906805	-732.488173172462	-43.9112646459314	-0.2982843439939035	1.828103567368341	0.2423605281614126	1.767051951708059	-6.441076068842237	-0.4270005902318923	-1.792644135208214	-0.0136743156360891	-4.821312265869062	-4.821312265869339	-0.04737501394024665	0.01347991662914568	-0.4911935591654252	-0.5121215180167787	8.397626898853141e-10	3.083314018834239e-09	-6.407667356981887e-09	-4.168356458868707e-10	1.2367624692856e-09	-2.700329296083421e-09	1.408738523611791e-09
1.01	-0.6596642911964518	-0.1310035694752038	0.584752932763589	1.990216612669694	-0.2927145683998665	0.1501286330904311	-0.4363287602526196	1.235122018624299	1.235122018624327	-0.1745184803167947	0.1745305828033712	0.1021615939258266	-0.02415836767857812	0.007904294582488704	0.003311709399108293	0.01449678795599611	-0.04825629471837847	-0.003285255095746913	-0.01489460846148575	-5.824462928416717e-05	-0.03976199560703854	-0.0397619956070397	4.067603877052591e-06	-7.350368044576504e-06	-0.00157232867430095	-0.003432669413283235	-0.4456385577664934	-0.0007568143525583695	-0.01722858719661263	-0.2571062447251426	0.137709298878416	0.0258298219587762	0.3573360708062577	-2.488695743043132	-10.60621280483435	1.087551242020634	8.663370653414244	-732.3842529478422	-43.96367821008009	-0.299929590368072	1.80851733720767	0.2410605711367972	1.763000166685507	-6.413552691843445	-0.3989849078646663	-1.82342196725676	0.01025087893742253	-4.813696882004682	-4.813696882004687	0.02192658793755498	-0.007576134139282249	-0.4858493617977102	-0.4801870316819247	-2.927942749914685e-09	-4.980594558628935e-09	2.438528515478714e-08	2.794468342171711e-09	-5.586281417261597e-09	2.412520909345618e-08	-5.31075994993443e-09
1.02	-0.6594944553773247	-0.1309583537429147	0.5849860724388014	1.98941297180322	-0.2927677906826187	0.1498890688631929	-0.4363292016459951	1.234483635132467	1.234483635132511	-0.1745184974856372	0.1745304768806284	0.1021214366098266	-0.02421719466969299	0.02606490037551958	0.005732629536717179	0.03212886939023637	-0.112468952901236	-0.007356857118262819	-0.03301620082411746	-2.86709351192178e-05	-0.08791230015352043	-0.08791230015352239	-7.44211110737892e-06	-1.401142514236533e-05	-0.006461762313344609	-0.008330646355019034	-0.4455720302288824	-0.0007434554379568053	-0.01723796014918253	-0.2570250909648239	0.1376521377574868	0.02589694608366804	0.3573007709933847	-2.503461342623127	-10.63477384737428	1.09438277616123	8.661368481359386	-732.3595519220164	-43.97954627939695	-0.3066259798761682	1.830538364268819	0.2437960248395172	1.76430966786316	-6.437568870704646	-0.4242087508667561	-1.790235846462414	-0.0120385828274648	-4.818420533121953	-4.81842053312219	-0.04731987508440297	0.01321914424520918	-0.4943438063272302	-0.5096395189288707	-6.490123063998208e-09	-1.288075977496925e-08	5.500545972926386e-08	5.508025424290056e-09	-1.208569260399203e-08	5.07904838153282e-08	-1.201213124656978e-08
1.03	-0.6591428915492182	-0.1308888571902355	0.5853954051393716	1.987967363228428	-0.2928616134060351	0.1494684131309729	-0.4363293442033129	1.233363922368312	1.233363922368284	-0.1745186477834171	0.1745303134478204	0.1020322733699645	-0.02432489372684826	0.04425590394413383	0.008171413699787243	0.04972950512494738	-0.1766427071565687	-0.01140008267491372	-0.05110734556920862	-2.144542760821027e-06	-0.1360176938443538	-0.1360176938443603	-2.272001375488704e-05	-1.785125545527078e-05	-0.0113765380549169	-0.01320171924716526	-0.4451633066415829	-0.0006453944038560527	-0.0172773195723469	-0.2568900950305738	0.1377278674303006	0.0260104518015939	0.3570640081481365	-2.454492060826044	-10.69791668334859	1.110472607833618	8.568477622239623	-732.043889247026	-44.04327524493578	-0.3186118330174154	1.814585980416617	0.2446311768582851	1.756711930720484	-6.405772077745261	-0.3932484681868872	-1.817429080241922	0.009652648149989011	-4.80471117881789	-4.804711178818398	0.0213458992729028	-0.007082859598517953	-0.4908910027290012	-0.4747312136079603	-1.005020618292136e-08	-2.077925414068585e-08	8.562387126356414e-08	8.216503456347782e-09	-1.858180141623453e-08	7.745412319365257e-08	-1.871331757201216e-08
1.04	-0.6586091767599745	-0.1307948304829619	0.5859804984781777	1.985880318436122	-0.292995642187043	0.148867070892959	-0.4363292906171327	1.231763533188898	1.2317635331888	-0.1745189553307994	0.1745301321541235	0.1018937930637553	-0.02448108152077509	0.06249509260310363	0.01063866045555964	0.0672809970374582	-0.2407561964038108	-0.01539806863646868	-0.06915350198267894	1.055776489651398e-05	-0.1840475832053422	-0.1840475832053512	-3.889203128951919e-05	-1.758360292717524e-05	-0.01632517558276005	-0.01802839370933	-0.4447545830542949	-0.0005473333697595087	-0.01731667899550389	-0.2567550990963233	0.137803597103115	0.02612395751951525	0.3568272453028761	-2.411541639675602	-10.75970412517772	1.12600203357298	8.497058552641565	-731.8077012756945	-44.07097534785709	-0.3361911729097653	1.840175382339928	0.2494885433799848	1.754480903423125	-6.425515869086524	-0.415160831847569	-1.781238180138259	-0.01480339976767694	-4.803319667152968	-4.803319667152803	-0.04749869806182555	0.01404064081341642	-0.5011161635814021	-0.5007598329325781	-1.349661099290684e-08	-2.839044552377011e-08	1.149801970939456e-07	1.077193517465734e-08	-2.478784302240875e-08	1.025915534891513e-07	-2.511665738315195e-08
